<svg width="564" height="230" viewBox="0 0 564 230" fill="none" xmlns="http://www.w3.org/2000/svg">
<rect width="564" height="230" fill="white"/>
<path fill-rule="evenodd" clip-rule="evenodd" d="M79.125 76.1875C79.125 71.6125 80.9424 67.2249 84.1774 63.9899C87.4124 60.7549 91.8 58.9375 96.375 58.9375H113.625C118.2 58.9375 122.588 60.7549 125.823 63.9899C129.058 67.2249 130.875 71.6125 130.875 76.1875V77.3662C136.24 77.855 141.553 78.499 146.826 79.2868C155.186 80.5403 161.062 87.814 161.062 96.0595V113.499C161.062 120.463 156.842 127.023 149.93 129.323C135.44 134.133 120.268 136.578 105 136.562C89.3025 136.562 74.1972 134.021 60.0695 129.323C53.158 127.023 48.9375 120.463 48.9375 113.499V96.0595C48.9375 87.814 54.814 80.5345 63.1745 79.2868C68.4719 78.4945 73.7909 77.8541 79.125 77.3662V76.1875ZM122.25 76.1875V76.705C110.761 76.0072 99.2394 76.0072 87.75 76.705V76.1875C87.75 73.9 88.6587 71.7062 90.2762 70.0887C91.8937 68.4712 94.0875 67.5625 96.375 67.5625H113.625C115.912 67.5625 118.106 68.4712 119.724 70.0887C121.341 71.7062 122.25 73.9 122.25 76.1875ZM105 123.625C106.144 123.625 107.241 123.171 108.049 122.362C108.858 121.553 109.312 120.456 109.312 119.312C109.312 118.169 108.858 117.072 108.049 116.263C107.241 115.454 106.144 115 105 115C103.856 115 102.759 115.454 101.951 116.263C101.142 117.072 100.688 118.169 100.688 119.312C100.688 120.456 101.142 121.553 101.951 122.362C102.759 123.171 103.856 123.625 105 123.625Z" fill="#C57AFE"/>
<path d="M53.25 151.8V135.723C54.56 136.44 55.9321 137.036 57.3498 137.506C72.7177 142.608 88.8072 145.202 105 145.188C121.629 145.188 137.66 142.497 152.65 137.511C154.099 137.028 155.468 136.425 156.75 135.723V151.8C156.75 160.149 150.73 167.486 142.243 168.607C130.053 170.229 117.621 171.063 105 171.063C92.5452 171.065 80.1039 170.245 67.7572 168.607C59.2702 167.486 53.25 160.149 53.25 151.8Z" fill="#C57AFE"/>
<path d="M227.016 113L211.912 93.16V113H200.968V68.072H211.912V87.784L226.888 68.072H239.752L222.344 90.088L240.392 113H227.016ZM261.849 113.512C258.35 113.512 255.193 112.765 252.377 111.272C249.604 109.779 247.406 107.645 245.785 104.872C244.206 102.099 243.417 98.856 243.417 95.144C243.417 91.4747 244.228 88.2533 245.849 85.48C247.47 82.664 249.689 80.5093 252.505 79.016C255.321 77.5227 258.478 76.776 261.977 76.776C265.476 76.776 268.633 77.5227 271.449 79.016C274.265 80.5093 276.484 82.664 278.105 85.48C279.726 88.2533 280.537 91.4747 280.537 95.144C280.537 98.8133 279.705 102.056 278.041 104.872C276.42 107.645 274.18 109.779 271.321 111.272C268.505 112.765 265.348 113.512 261.849 113.512ZM261.849 104.04C263.94 104.04 265.71 103.272 267.161 101.736C268.654 100.2 269.401 98.0027 269.401 95.144C269.401 92.2853 268.676 90.088 267.225 88.552C265.817 87.016 264.068 86.248 261.977 86.248C259.844 86.248 258.073 87.016 256.665 88.552C255.257 90.0453 254.553 92.2427 254.553 95.144C254.553 98.0027 255.236 100.2 256.601 101.736C258.009 103.272 259.758 104.04 261.849 104.04ZM297.287 82.344C298.354 80.68 299.826 79.336 301.703 78.312C303.58 77.288 305.778 76.776 308.295 76.776C311.239 76.776 313.906 77.5227 316.295 79.016C318.684 80.5093 320.562 82.6427 321.927 85.416C323.335 88.1893 324.039 91.4107 324.039 95.08C324.039 98.7493 323.335 101.992 321.927 104.808C320.562 107.581 318.684 109.736 316.295 111.272C313.906 112.765 311.239 113.512 308.295 113.512C305.82 113.512 303.623 113 301.703 111.976C299.826 110.952 298.354 109.629 297.287 108.008V130.024H286.343V77.288H297.287V82.344ZM312.903 95.08C312.903 92.3493 312.135 90.216 310.599 88.68C309.106 87.1013 307.25 86.312 305.031 86.312C302.855 86.312 300.999 87.1013 299.463 88.68C297.97 90.2587 297.223 92.4133 297.223 95.144C297.223 97.8747 297.97 100.029 299.463 101.608C300.999 103.187 302.855 103.976 305.031 103.976C307.207 103.976 309.063 103.187 310.599 101.608C312.135 99.9867 312.903 97.8107 312.903 95.08ZM363.444 94.568C363.444 95.592 363.381 96.6587 363.253 97.768H338.485C338.655 99.9867 339.359 101.693 340.597 102.888C341.877 104.04 343.434 104.616 345.269 104.616C347.999 104.616 349.898 103.464 350.965 101.16H362.613C362.015 103.507 360.927 105.619 359.349 107.496C357.813 109.373 355.871 110.845 353.525 111.912C351.178 112.979 348.554 113.512 345.653 113.512C342.154 113.512 339.039 112.765 336.309 111.272C333.578 109.779 331.445 107.645 329.909 104.872C328.373 102.099 327.605 98.856 327.605 95.144C327.605 91.432 328.351 88.1893 329.845 85.416C331.381 82.6427 333.514 80.5093 336.245 79.016C338.975 77.5227 342.111 76.776 345.653 76.776C349.109 76.776 352.181 77.5013 354.869 78.952C357.557 80.4027 359.647 82.472 361.141 85.16C362.677 87.848 363.444 90.984 363.444 94.568ZM352.245 91.688C352.245 89.8107 351.605 88.3173 350.325 87.208C349.045 86.0987 347.445 85.544 345.525 85.544C343.69 85.544 342.133 86.0773 340.853 87.144C339.615 88.2107 338.847 89.7253 338.549 91.688H352.245ZM380.162 83.24C381.442 81.2773 383.042 79.7413 384.962 78.632C386.882 77.48 389.015 76.904 391.362 76.904V88.488H388.354C385.623 88.488 383.575 89.0853 382.21 90.28C380.845 91.432 380.162 93.48 380.162 96.424V113H369.218V77.288H380.162V83.24ZM394.417 95.08C394.417 91.4107 395.1 88.1893 396.465 85.416C397.873 82.6427 399.772 80.5093 402.161 79.016C404.55 77.5227 407.217 76.776 410.161 76.776C412.678 76.776 414.876 77.288 416.753 78.312C418.673 79.336 420.145 80.68 421.169 82.344V77.288H432.113V113H421.169V107.944C420.102 109.608 418.609 110.952 416.689 111.976C414.812 113 412.614 113.512 410.097 113.512C407.196 113.512 404.55 112.765 402.161 111.272C399.772 109.736 397.873 107.581 396.465 104.808C395.1 101.992 394.417 98.7493 394.417 95.08ZM421.169 95.144C421.169 92.4133 420.401 90.2587 418.865 88.68C417.372 87.1013 415.537 86.312 413.361 86.312C411.185 86.312 409.329 87.1013 407.793 88.68C406.3 90.216 405.553 92.3493 405.553 95.08C405.553 97.8107 406.3 99.9867 407.793 101.608C409.329 103.187 411.185 103.976 413.361 103.976C415.537 103.976 417.372 103.187 418.865 101.608C420.401 100.029 421.169 97.8747 421.169 95.144ZM454.559 113.512C451.444 113.512 448.671 112.979 446.239 111.912C443.807 110.845 441.887 109.395 440.479 107.56C439.071 105.683 438.281 103.592 438.111 101.288H448.927C449.055 102.525 449.631 103.528 450.655 104.296C451.679 105.064 452.937 105.448 454.431 105.448C455.796 105.448 456.841 105.192 457.567 104.68C458.335 104.125 458.719 103.421 458.719 102.568C458.719 101.544 458.185 100.797 457.119 100.328C456.052 99.816 454.324 99.2613 451.935 98.664C449.375 98.0667 447.241 97.448 445.535 96.808C443.828 96.1253 442.356 95.08 441.119 93.672C439.881 92.2213 439.263 90.28 439.263 87.848C439.263 85.8 439.817 83.944 440.927 82.28C442.079 80.5733 443.743 79.2293 445.919 78.248C448.137 77.2667 450.761 76.776 453.791 76.776C458.271 76.776 461.791 77.8853 464.351 80.104C466.953 82.3227 468.447 85.2667 468.831 88.936H458.719C458.548 87.6987 457.993 86.7173 457.055 85.992C456.159 85.2667 454.964 84.904 453.471 84.904C452.191 84.904 451.209 85.16 450.527 85.672C449.844 86.1413 449.503 86.8027 449.503 87.656C449.503 88.68 450.036 89.448 451.103 89.96C452.212 90.472 453.919 90.984 456.223 91.496C458.868 92.1787 461.023 92.8613 462.687 93.544C464.351 94.184 465.801 95.2507 467.039 96.744C468.319 98.1947 468.98 100.157 469.023 102.632C469.023 104.723 468.425 106.6 467.231 108.264C466.079 109.885 464.393 111.165 462.175 112.104C459.999 113.043 457.46 113.512 454.559 113.512ZM481.222 73.576C479.302 73.576 477.723 73.0213 476.486 71.912C475.291 70.76 474.694 69.352 474.694 67.688C474.694 65.9813 475.291 64.5733 476.486 63.464C477.723 62.312 479.302 61.736 481.222 61.736C483.099 61.736 484.635 62.312 485.83 63.464C487.067 64.5733 487.686 65.9813 487.686 67.688C487.686 69.352 487.067 70.76 485.83 71.912C484.635 73.0213 483.099 73.576 481.222 73.576ZM486.662 77.288V113H475.718V77.288H486.662Z" fill="#A55EFE"/>
<path d="M212.408 140.96C214.456 140.96 216.312 141.216 217.976 141.728C219.64 142.24 221.06 142.972 222.236 143.924C223.42 144.876 224.332 146.036 224.972 147.404C225.612 148.772 225.932 150.312 225.932 152.024H221.012C221.012 151.032 220.8 150.136 220.376 149.336C219.96 148.528 219.372 147.844 218.612 147.284C217.852 146.716 216.94 146.28 215.876 145.976C214.82 145.672 213.652 145.52 212.372 145.52C211.652 145.52 210.936 145.572 210.224 145.676C209.52 145.772 208.84 145.924 208.184 146.132C207.536 146.332 206.932 146.588 206.372 146.9C205.812 147.212 205.328 147.58 204.92 148.004C204.512 148.428 204.188 148.912 203.948 149.456C203.716 149.992 203.6 150.588 203.6 151.244C203.6 151.82 203.692 152.324 203.876 152.756C204.068 153.18 204.34 153.548 204.692 153.86C205.044 154.172 205.476 154.44 205.988 154.664C206.508 154.888 207.096 155.084 207.752 155.252C208.416 155.412 209.14 155.56 209.924 155.696C210.716 155.832 211.568 155.968 212.48 156.104L214.256 156.368C215.224 156.512 216.216 156.676 217.232 156.86C218.248 157.036 219.232 157.272 220.184 157.568C221.144 157.856 222.048 158.224 222.896 158.672C223.744 159.112 224.484 159.668 225.116 160.34C225.756 161.012 226.26 161.824 226.628 162.776C226.996 163.72 227.18 164.84 227.18 166.136C227.18 167.92 226.824 169.476 226.112 170.804C225.408 172.124 224.42 173.224 223.148 174.104C221.884 174.976 220.372 175.628 218.612 176.06C216.86 176.5 214.932 176.72 212.828 176.72C210.524 176.72 208.46 176.468 206.636 175.964C204.812 175.452 203.264 174.712 201.992 173.744C200.728 172.768 199.76 171.576 199.088 170.168C198.416 168.752 198.08 167.144 198.08 165.344H203C203 166.408 203.228 167.364 203.684 168.212C204.14 169.052 204.788 169.768 205.628 170.36C206.476 170.944 207.5 171.392 208.7 171.704C209.908 172.008 211.26 172.16 212.756 172.16C214.044 172.16 215.26 172.04 216.404 171.8C217.556 171.56 218.564 171.192 219.428 170.696C220.292 170.192 220.976 169.556 221.48 168.788C221.992 168.02 222.248 167.104 222.248 166.04C222.248 165.408 222.152 164.86 221.96 164.396C221.776 163.932 221.508 163.532 221.156 163.196C220.804 162.852 220.38 162.564 219.884 162.332C219.388 162.1 218.828 161.904 218.204 161.744C217.58 161.576 216.9 161.432 216.164 161.312C215.436 161.184 214.668 161.056 213.86 160.928L211.628 160.592C210.644 160.448 209.64 160.288 208.616 160.112C207.6 159.936 206.612 159.712 205.652 159.44C204.692 159.16 203.788 158.812 202.94 158.396C202.1 157.972 201.364 157.444 200.732 156.812C200.1 156.172 199.6 155.408 199.232 154.52C198.864 153.632 198.68 152.576 198.68 151.352C198.68 150.208 198.844 149.156 199.172 148.196C199.508 147.236 199.976 146.372 200.576 145.604C201.176 144.836 201.896 144.164 202.736 143.588C203.576 143.004 204.504 142.52 205.52 142.136C206.536 141.744 207.624 141.452 208.784 141.26C209.952 141.06 211.16 140.96 212.408 140.96ZM235.046 149.54V176H230.186V149.54H235.046ZM235.166 140.48V146.48H230.066V140.48H235.166ZM243.764 161.684V176H238.904V149.54H243.764V157.052L243.728 157.076C244.024 155.788 244.448 154.636 245 153.62C245.56 152.596 246.224 151.732 246.992 151.028C247.768 150.316 248.64 149.772 249.608 149.396C250.584 149.012 251.636 148.82 252.764 148.82C253.956 148.82 255.044 149.032 256.028 149.456C257.012 149.872 257.872 150.48 258.608 151.28C259.344 152.08 259.952 153.056 260.432 154.208C260.92 155.36 261.264 156.668 261.464 158.132L261.404 158.12C261.652 156.68 262.044 155.388 262.58 154.244C263.124 153.092 263.792 152.116 264.584 151.316C265.384 150.508 266.292 149.892 267.308 149.468C268.332 149.036 269.448 148.82 270.656 148.82C272.048 148.82 273.292 149.104 274.388 149.672C275.492 150.24 276.424 151.06 277.184 152.132C277.952 153.196 278.536 154.496 278.936 156.032C279.344 157.56 279.548 159.284 279.548 161.204V176H274.688V161.204C274.688 159.876 274.56 158.716 274.304 157.724C274.056 156.724 273.68 155.892 273.176 155.228C272.672 154.556 272.04 154.052 271.28 153.716C270.52 153.38 269.636 153.212 268.628 153.212C267.532 153.212 266.552 153.404 265.688 153.788C264.832 154.164 264.104 154.716 263.504 155.444C262.904 156.164 262.444 157.052 262.124 158.108C261.812 159.156 261.656 160.348 261.656 161.684V176H256.796V161.204C256.796 159.876 256.668 158.716 256.412 157.724C256.164 156.724 255.788 155.892 255.284 155.228C254.78 154.556 254.148 154.052 253.388 153.716C252.628 153.38 251.744 153.212 250.736 153.212C249.64 153.212 248.66 153.404 247.796 153.788C246.94 154.164 246.212 154.716 245.612 155.444C245.012 156.164 244.552 157.052 244.232 158.108C243.92 159.156 243.764 160.348 243.764 161.684ZM288.108 149.54V157.832L288.072 157.844C288.408 156.468 288.88 155.224 289.488 154.112C290.104 153 290.832 152.052 291.672 151.268C292.52 150.484 293.472 149.88 294.528 149.456C295.584 149.032 296.716 148.82 297.924 148.82C299.012 148.82 300.044 148.976 301.02 149.288C301.996 149.6 302.896 150.048 303.72 150.632C304.552 151.208 305.3 151.912 305.964 152.744C306.636 153.576 307.204 154.508 307.668 155.54C308.132 156.572 308.488 157.696 308.736 158.912C308.992 160.128 309.12 161.412 309.12 162.764C309.12 164.116 308.992 165.4 308.736 166.616C308.488 167.832 308.132 168.96 307.668 170C307.204 171.032 306.636 171.964 305.964 172.796C305.3 173.62 304.552 174.324 303.72 174.908C302.896 175.492 301.996 175.94 301.02 176.252C300.044 176.564 299.012 176.72 297.924 176.72C296.716 176.72 295.584 176.508 294.528 176.084C293.472 175.66 292.52 175.056 291.672 174.272C290.832 173.488 290.104 172.54 289.488 171.428C288.88 170.308 288.408 169.06 288.072 167.684L288.108 167.708V185.06H283.248V149.54H288.108ZM288.108 162.764C288.108 163.772 288.192 164.712 288.36 165.584C288.528 166.448 288.772 167.24 289.092 167.96C289.412 168.68 289.808 169.32 290.28 169.88C290.752 170.432 291.288 170.9 291.888 171.284C292.496 171.66 293.164 171.948 293.892 172.148C294.628 172.348 295.42 172.448 296.268 172.448C297.564 172.448 298.708 172.24 299.7 171.824C300.692 171.4 301.524 170.78 302.196 169.964C302.876 169.14 303.388 168.128 303.732 166.928C304.084 165.72 304.26 164.332 304.26 162.764C304.26 161.196 304.084 159.812 303.732 158.612C303.388 157.404 302.88 156.392 302.208 155.576C301.536 154.76 300.7 154.144 299.7 153.728C298.708 153.304 297.564 153.092 296.268 153.092C295.42 153.092 294.628 153.192 293.892 153.392C293.164 153.592 292.496 153.884 291.888 154.268C291.288 154.644 290.752 155.112 290.28 155.672C289.808 156.224 289.412 156.86 289.092 157.58C288.772 158.292 288.528 159.084 288.36 159.956C288.192 160.82 288.108 161.756 288.108 162.764ZM312.183 158.756C312.183 157.236 312.463 155.864 313.023 154.64C313.583 153.416 314.383 152.372 315.423 151.508C316.471 150.644 317.739 149.98 319.227 149.516C320.715 149.052 322.383 148.82 324.231 148.82C326.191 148.82 327.947 149.084 329.499 149.612C331.051 150.132 332.367 150.884 333.447 151.868C334.527 152.852 335.355 154.056 335.931 155.48C336.507 156.896 336.795 158.504 336.795 160.304V176H331.935V168.752H331.971C331.763 169.576 331.479 170.344 331.119 171.056C330.759 171.768 330.331 172.42 329.835 173.012C329.339 173.604 328.775 174.132 328.143 174.596C327.519 175.052 326.835 175.44 326.091 175.76C325.355 176.072 324.563 176.308 323.715 176.468C322.867 176.636 321.975 176.72 321.039 176.72C319.591 176.72 318.275 176.528 317.091 176.144C315.907 175.768 314.891 175.232 314.043 174.536C313.203 173.832 312.551 172.992 312.087 172.016C311.631 171.032 311.403 169.94 311.403 168.74C311.403 167.532 311.639 166.444 312.111 165.476C312.591 164.508 313.275 163.688 314.163 163.016C315.059 162.336 316.143 161.816 317.415 161.456C318.687 161.096 320.123 160.916 321.723 160.916H332.115V164.996H321.675C320.779 164.996 319.991 165.072 319.311 165.224C318.631 165.376 318.059 165.604 317.595 165.908C317.139 166.212 316.791 166.588 316.551 167.036C316.319 167.484 316.203 168 316.203 168.584C316.203 169.208 316.335 169.764 316.599 170.252C316.871 170.74 317.267 171.148 317.787 171.476C318.307 171.804 318.947 172.056 319.707 172.232C320.475 172.4 321.355 172.484 322.347 172.484C323.283 172.484 324.167 172.408 324.999 172.256C325.839 172.104 326.615 171.888 327.327 171.608C328.039 171.328 328.679 170.988 329.247 170.588C329.815 170.188 330.299 169.74 330.699 169.244C331.099 168.74 331.403 168.192 331.611 167.6C331.827 167.008 331.935 166.384 331.935 165.728V160.304C331.935 159.216 331.751 158.236 331.383 157.364C331.023 156.492 330.507 155.748 329.835 155.132C329.163 154.516 328.347 154.044 327.387 153.716C326.427 153.388 325.347 153.224 324.147 153.224C322.923 153.224 321.863 153.356 320.967 153.62C320.079 153.884 319.343 154.256 318.759 154.736C318.183 155.216 317.751 155.8 317.463 156.488C317.183 157.168 317.043 157.924 317.043 158.756H312.183ZM345.389 161.684V176H340.529V149.54H345.389V157.316L345.353 157.34C345.665 156.012 346.117 154.824 346.709 153.776C347.309 152.72 348.029 151.828 348.869 151.1C349.717 150.364 350.673 149.8 351.737 149.408C352.809 149.016 353.965 148.82 355.205 148.82C356.717 148.82 358.069 149.104 359.261 149.672C360.453 150.24 361.461 151.06 362.285 152.132C363.109 153.196 363.741 154.496 364.181 156.032C364.621 157.56 364.841 159.284 364.841 161.204V176H359.981V161.204C359.981 159.876 359.841 158.716 359.561 157.724C359.281 156.724 358.857 155.892 358.289 155.228C357.721 154.556 357.013 154.052 356.165 153.716C355.317 153.38 354.325 153.212 353.189 153.212C352.373 153.212 351.613 153.3 350.909 153.476C350.213 153.644 349.573 153.892 348.989 154.22C348.413 154.548 347.901 154.956 347.453 155.444C347.005 155.924 346.629 156.48 346.325 157.112C346.021 157.736 345.789 158.432 345.629 159.2C345.469 159.96 345.389 160.788 345.389 161.684ZM379.462 176V141.68H395.374C397.166 141.68 398.814 141.952 400.318 142.496C401.83 143.04 403.13 143.804 404.218 144.788C405.306 145.764 406.154 146.928 406.762 148.28C407.37 149.624 407.674 151.104 407.674 152.72C407.674 154.328 407.366 155.812 406.75 157.172C406.142 158.532 405.294 159.704 404.206 160.688C403.118 161.672 401.818 162.44 400.306 162.992C398.802 163.544 397.158 163.82 395.374 163.82H383.638L384.502 162.836V176H379.462ZM384.094 146.36L384.502 145.844V159.956L383.866 159.14H394.978C396.146 159.14 397.202 158.992 398.146 158.696C399.09 158.392 399.894 157.964 400.558 157.412C401.222 156.852 401.734 156.176 402.094 155.384C402.454 154.592 402.634 153.704 402.634 152.72C402.634 151.744 402.458 150.864 402.106 150.08C401.754 149.296 401.25 148.628 400.594 148.076C399.938 147.524 399.142 147.1 398.206 146.804C397.278 146.508 396.234 146.36 395.074 146.36H384.094ZM416.124 149.54V176H411.264V149.54H416.124ZM416.244 140.48V146.48H411.144V140.48H416.244ZM424.842 161.684V176H419.983V149.54H424.842V157.316L424.807 157.34C425.119 156.012 425.571 154.824 426.163 153.776C426.763 152.72 427.483 151.828 428.323 151.1C429.171 150.364 430.127 149.8 431.191 149.408C432.263 149.016 433.419 148.82 434.659 148.82C436.171 148.82 437.523 149.104 438.715 149.672C439.907 150.24 440.915 151.06 441.739 152.132C442.563 153.196 443.195 154.496 443.635 156.032C444.075 157.56 444.295 159.284 444.295 161.204V176H439.435V161.204C439.435 159.876 439.295 158.716 439.015 157.724C438.735 156.724 438.311 155.892 437.743 155.228C437.175 154.556 436.467 154.052 435.619 153.716C434.771 153.38 433.779 153.212 432.643 153.212C431.827 153.212 431.067 153.3 430.363 153.476C429.667 153.644 429.027 153.892 428.443 154.22C427.867 154.548 427.355 154.956 426.907 155.444C426.459 155.924 426.083 156.48 425.779 157.112C425.475 157.736 425.243 158.432 425.083 159.2C424.923 159.96 424.842 160.788 424.842 161.684ZM452.874 149.54V174.92C452.874 176.136 452.778 177.248 452.586 178.256C452.402 179.272 452.122 180.184 451.746 180.992C451.378 181.8 450.91 182.504 450.342 183.104C449.782 183.704 449.126 184.204 448.374 184.604C447.622 185.012 446.778 185.316 445.842 185.516C444.898 185.716 443.862 185.816 442.734 185.816H441.966V181.424H442.734C443.598 181.424 444.33 181.312 444.93 181.088C445.522 180.872 446.014 180.584 446.406 180.224C446.798 179.864 447.102 179.452 447.318 178.988C447.534 178.532 447.694 178.06 447.798 177.572C447.902 177.092 447.962 176.62 447.978 176.156C448.002 175.692 448.014 175.28 448.014 174.92V149.54H452.874ZM452.994 140.48V146.48H447.894V140.48H452.994ZM456.793 158.756C456.793 157.236 457.073 155.864 457.633 154.64C458.193 153.416 458.993 152.372 460.033 151.508C461.081 150.644 462.349 149.98 463.837 149.516C465.325 149.052 466.993 148.82 468.841 148.82C470.801 148.82 472.557 149.084 474.109 149.612C475.661 150.132 476.977 150.884 478.057 151.868C479.137 152.852 479.965 154.056 480.541 155.48C481.117 156.896 481.405 158.504 481.405 160.304V176H476.545V168.752H476.581C476.373 169.576 476.089 170.344 475.729 171.056C475.369 171.768 474.941 172.42 474.445 173.012C473.949 173.604 473.385 174.132 472.753 174.596C472.129 175.052 471.445 175.44 470.701 175.76C469.965 176.072 469.173 176.308 468.325 176.468C467.477 176.636 466.585 176.72 465.649 176.72C464.201 176.72 462.885 176.528 461.701 176.144C460.517 175.768 459.501 175.232 458.653 174.536C457.813 173.832 457.161 172.992 456.697 172.016C456.241 171.032 456.013 169.94 456.013 168.74C456.013 167.532 456.249 166.444 456.721 165.476C457.201 164.508 457.885 163.688 458.773 163.016C459.669 162.336 460.753 161.816 462.025 161.456C463.297 161.096 464.733 160.916 466.333 160.916H476.725V164.996H466.285C465.389 164.996 464.601 165.072 463.921 165.224C463.241 165.376 462.669 165.604 462.205 165.908C461.749 166.212 461.401 166.588 461.161 167.036C460.929 167.484 460.812 168 460.812 168.584C460.812 169.208 460.945 169.764 461.209 170.252C461.481 170.74 461.877 171.148 462.397 171.476C462.917 171.804 463.557 172.056 464.317 172.232C465.085 172.4 465.965 172.484 466.957 172.484C467.893 172.484 468.777 172.408 469.609 172.256C470.449 172.104 471.225 171.888 471.937 171.608C472.649 171.328 473.289 170.988 473.857 170.588C474.425 170.188 474.909 169.74 475.309 169.244C475.709 168.74 476.013 168.192 476.221 167.6C476.437 167.008 476.545 166.384 476.545 165.728V160.304C476.545 159.216 476.361 158.236 475.993 157.364C475.633 156.492 475.117 155.748 474.445 155.132C473.773 154.516 472.957 154.044 471.997 153.716C471.037 153.388 469.957 153.224 468.757 153.224C467.533 153.224 466.473 153.356 465.577 153.62C464.689 153.884 463.953 154.256 463.369 154.736C462.793 155.216 462.361 155.8 462.073 156.488C461.793 157.168 461.653 157.924 461.653 158.756H456.793ZM489.999 161.684V176H485.139V149.54H489.999V157.052L489.963 157.076C490.259 155.788 490.683 154.636 491.235 153.62C491.795 152.596 492.459 151.732 493.227 151.028C494.003 150.316 494.875 149.772 495.843 149.396C496.819 149.012 497.871 148.82 498.999 148.82C500.191 148.82 501.279 149.032 502.263 149.456C503.247 149.872 504.107 150.48 504.843 151.28C505.579 152.08 506.187 153.056 506.667 154.208C507.155 155.36 507.499 156.668 507.699 158.132L507.639 158.12C507.887 156.68 508.279 155.388 508.815 154.244C509.359 153.092 510.027 152.116 510.819 151.316C511.619 150.508 512.527 149.892 513.543 149.468C514.567 149.036 515.683 148.82 516.891 148.82C518.283 148.82 519.527 149.104 520.623 149.672C521.727 150.24 522.659 151.06 523.419 152.132C524.187 153.196 524.771 154.496 525.171 156.032C525.579 157.56 525.783 159.284 525.783 161.204V176H520.923V161.204C520.923 159.876 520.795 158.716 520.539 157.724C520.291 156.724 519.915 155.892 519.411 155.228C518.907 154.556 518.275 154.052 517.515 153.716C516.755 153.38 515.871 153.212 514.863 153.212C513.767 153.212 512.787 153.404 511.923 153.788C511.067 154.164 510.339 154.716 509.739 155.444C509.139 156.164 508.679 157.052 508.359 158.108C508.047 159.156 507.891 160.348 507.891 161.684V176H503.031V161.204C503.031 159.876 502.903 158.716 502.647 157.724C502.399 156.724 502.023 155.892 501.519 155.228C501.015 154.556 500.383 154.052 499.623 153.716C498.863 153.38 497.979 153.212 496.971 153.212C495.875 153.212 494.895 153.404 494.031 153.788C493.175 154.164 492.447 154.716 491.847 155.444C491.247 156.164 490.787 157.052 490.467 158.108C490.155 159.156 489.999 160.348 489.999 161.684Z" fill="#111111" fill-opacity="0.7"/>
</svg>
