<svg width="210" height="224" viewBox="0 0 210 224" fill="none" xmlns="http://www.w3.org/2000/svg">
<rect width="210" height="224" fill="white"/>
<path fill-rule="evenodd" clip-rule="evenodd" d="M79.125 73.1875C79.125 68.6125 80.9424 64.2249 84.1774 60.9899C87.4124 57.7549 91.8 55.9375 96.375 55.9375H113.625C118.2 55.9375 122.588 57.7549 125.823 60.9899C129.058 64.2249 130.875 68.6125 130.875 73.1875V74.3662C136.24 74.855 141.553 75.499 146.826 76.2868C155.186 77.5403 161.062 84.814 161.062 93.0595V110.499C161.062 117.463 156.842 124.023 149.93 126.323C135.44 131.133 120.268 133.578 105 133.562C89.3025 133.562 74.1972 131.021 60.0695 126.323C53.158 124.023 48.9375 117.463 48.9375 110.499V93.0595C48.9375 84.814 54.814 77.5345 63.1745 76.2868C68.4719 75.4945 73.7909 74.8541 79.125 74.3662V73.1875ZM122.25 73.1875V73.705C110.761 73.0072 99.2394 73.0072 87.75 73.705V73.1875C87.75 70.9 88.6587 68.7062 90.2762 67.0887C91.8937 65.4712 94.0875 64.5625 96.375 64.5625H113.625C115.912 64.5625 118.106 65.4712 119.724 67.0887C121.341 68.7062 122.25 70.9 122.25 73.1875ZM105 120.625C106.144 120.625 107.241 120.171 108.049 119.362C108.858 118.553 109.312 117.456 109.312 116.312C109.312 115.169 108.858 114.072 108.049 113.263C107.241 112.454 106.144 112 105 112C103.856 112 102.759 112.454 101.951 113.263C101.142 114.072 100.688 115.169 100.688 116.312C100.688 117.456 101.142 118.553 101.951 119.362C102.759 120.171 103.856 120.625 105 120.625Z" fill="#C57AFE"/>
<path d="M53.25 148.8V132.723C54.56 133.44 55.9321 134.036 57.3498 134.506C72.7177 139.608 88.8072 142.202 105 142.188C121.629 142.188 137.66 139.497 152.65 134.511C154.099 134.028 155.468 133.425 156.75 132.723V148.8C156.75 157.149 150.73 164.486 142.243 165.607C130.053 167.229 117.621 168.063 105 168.063C92.5452 168.065 80.1039 167.245 67.7572 165.607C59.2702 164.486 53.25 157.149 53.25 148.8Z" fill="#C57AFE"/>
</svg>
